HIERARCHY
ROOT Hips
{
	OFFSET 0.00000 0.00000 0.00000
	CHANNELS 6 Xposition Yposition Zposition Yrotation Zrotation Xrotation 
	JOINT Lumbar
	{
		OFFSET 0 0 0
		CHANNELS 3 Zrotation Xrotation Yrotation
		JOINT Neck
		{
			OFFSET 0.00 0.2701 0.00
			CHANNELS 3 Zrotation Xrotation Yrotation
			End Site
			{
				OFFSET 0.00 0.1379 0.00
			}
		}
		JOINT RightShoulder
		{
			OFFSET 0.0119 0.2289 0.1181
			CHANNELS 3 Zrotation Xrotation Yrotation
			JOINT RightElbow
			{
				OFFSET 0.00 -0.1475 0.00
				CHANNELS 2 Zrotation Yrotation
				JOINT RightWrist
				{
					OFFSET 0.00 -0.1605 0.00
					CHANNELS 2 Zrotation Xrotation
					End Site
					{
						OFFSET 0.0040 -0.1068 0.0006
					}
				}
			}
		}
		JOINT LeftShoulder
		{
			OFFSET 0.0119 0.2289 -0.1181
			CHANNELS 3 Zrotation Xrotation Yrotation
			JOINT LeftElbow
			{
				OFFSET 0.00 -0.1475 0.00
				CHANNELS 2 Zrotation Yrotation
				JOINT LeftWrist
				{
					OFFSET 0.00 -0.1605 0.00
					CHANNELS 2 Zrotation Xrotation
					End Site
					{
						OFFSET 0.0040 -0.1068 -0.0006
					}
				}
			}
		}
	}
	JOINT RightHip
	{
		OFFSET 0.0316 -0.0424 0.0458
		CHANNELS 3 Zrotation Xrotation Yrotation
		JOINT RightKnee
		{
			OFFSET 0.00 -0.2438 0.00
			CHANNELS 1 Zrotation
			JOINT RightAnkle
			{
				OFFSET 0.00 -0.2449 0.00
				CHANNELS 3 Zrotation Xrotation Yrotation
				End Site
				{
					OFFSET 0.1237 -0.0542 0.0051
				}
			}
		}
	}
	JOINT LeftHip
	{
		OFFSET 0.0316 -0.0424 -0.0458
		CHANNELS 3 Zrotation Xrotation Yrotation
		JOINT LeftKnee
		{
			OFFSET 0.00 -0.2438 0.00
			CHANNELS 1 Zrotation
			JOINT LeftAnkle
			{
				OFFSET 0.00 -0.2449 0.00
				CHANNELS 3 Zrotation Xrotation Yrotation
				End Site
				{
					OFFSET 0.1237 -0.0542 -0.0051
				}
			}
		}
	}
}
MOTION
Frames: 21
Frame Time: 0.02
0.32855 -0.09875 -0.14482 741.06848 -6.07791 -4.13612 24.31585 0.47682 6.90049 -19.74617 -0.93513 -2.11994 166.38694 -150.46557 -87.14688 121.6733 69.50286 -75.22934 -21.88684 166.38688 153.61755 87.14684 126.88277 -68.4965 -75.22911 21.88466 77.15102 -9.63383 -4.93855 -90.13266 -5.86337 -1.60794 -2.98402 88.68155 12.75642 -12.09223 -100.72432 -12.54502 1.8495 3.42372
0.32728 -0.0996 -0.14465 741.11749 -5.44059 -4.15043 24.37164 0.54611 6.60053 -19.80738 -0.99924 -2.11994 166.38693 -150.43624 -87.14687 121.10959 69.40467 -75.2293 -21.88646 166.38688 154.06715 87.14684 126.36203 -68.41394 -75.2291 21.88465 77.13433 -9.6673 -4.89803 -89.75396 -5.897 -1.63789 -3.00054 88.76386 12.57191 -11.85434 -101.24482 -12.73018 1.85593 3.43395
0.3259 -0.10049 -0.14448 741.19794 -4.8162 -4.16849 24.2958 0.64804 6.19795 -19.86033 -1.09422 -2.11994 166.38692 -150.53877 -87.14686 120.79418 69.29118 -75.22925 -21.88598 166.38688 154.52616 87.14684 125.77032 -68.32382 -75.2291 21.88464 77.2262 -9.66991 -4.78969 -89.2605 -5.93073 -1.6758 -3.02112 88.9938 12.37375 -11.59444 -101.86719 -12.96228 1.837 3.43319
0.32458 -0.10137 -0.14429 741.2651 -4.18317 -4.18694 24.26963 0.73248 5.84016 -19.92819 -1.17033 -2.11994 166.38691 -150.58621 -87.14686 120.3722 69.18728 -75.2292 -21.88556 166.38689 154.96883 87.14684 125.21526 -68.23819 -75.2291 21.88464 77.26581 -9.67181 -4.69953 -88.81348 -5.96609 -1.70763 -3.03865 89.15489 12.18056 -11.34301 -102.45519 -13.16913 1.82887 3.43692
0.3232 -0.10221 -0.14418 741.32728 -3.56289 -4.19542 24.28846 0.82919 5.49121 -19.95049 -1.26909 -2.11994 166.3869 -150.60654 -87.14685 119.92065 69.0739 -75.22915 -21.88508 166.38689 155.46288 87.14684 124.63897 -68.14802 -75.2291 21.88463 77.318 -9.73482 -4.66064 -88.38485 -5.99467 -1.74992 -3.06128 89.32054 11.99057 -11.09554 -102.98789 -13.39384 1.82392 3.44287
0.32194 -0.10313 -0.14391 741.40772 -2.91956 -4.22556 24.18204 0.90751 5.09978 -20.06603 -1.32706 -2.11994 166.38689 -150.71703 -87.14684 119.59178 68.97602 -75.22911 -21.8847 166.38689 155.85208 87.14684 124.09363 -68.06556 -75.2291 21.88462 77.36886 -9.66708 -4.50319 -87.89269 -6.03733 -1.77217 -3.0742 89.5133 11.79282 -10.8339 -103.66283 -13.59136 1.80651 3.44164
0.32105 -0.10423 -0.14321 741.52943 -2.19949 -4.31977 23.75482 0.92924 4.60743 -20.42945 -1.26602 -2.11994 166.38689 -151.04751 -87.14684 119.52978 68.92439 -75.2291 -21.88463 166.38689 155.94848 87.14684 123.6205 -68.00599 -75.2291 21.88461 77.39942 -9.20282 -3.99112 -87.25525 -6.11833 -1.73857 -3.05992 89.73893 11.55976 -10.55952 -104.69318 -13.71036 1.75796 3.42218
0.3203 -0.10539 -0.14236 741.66874 -1.45767 -4.43493 23.20715 0.93088 4.0773 -20.88838 -1.16233 -2.11994 166.38689 -151.46513 -87.14684 119.58513 68.88873 -75.22911 -21.88467 166.38689 155.9396 87.14684 123.1873 -67.95452 -75.2291 21.8846 77.42309 -8.61539 -3.36984 -86.55838 -6.2135 -1.6843 -3.03564 89.98801 11.32245 -10.26865 -105.86539 -13.79897 1.6982 3.39605
0.31949 -0.10652 -0.14159 741.8011 -0.73158 -4.53728 22.7187 0.94009 3.56982 -21.31135 -1.07714 -2.11994 166.38689 -151.84094 -87.14684 119.59422 68.84568 -75.2291 -21.88466 166.38689 155.97888 87.14684 122.75502 -67.89945 -75.2291 21.88459 77.44353 -8.11248 -2.82718 -85.88809 -6.30255 -1.6385 -3.01552 90.2307 11.09868 -9.9718 -106.98222 -13.89592 1.64552 3.3737
0.31867 -0.10768 -0.14078 741.93033 0.02013 -4.65347 22.20619 0.95678 3.03532 -21.70431 -0.99689 -2.11994 166.38689 -152.22812 -87.14684 119.5817 68.80261 -75.2291 -21.88465 166.38689 156.01524 87.14684 122.23707 -67.84358 -75.2291 21.88458 77.49476 -7.4891 -2.16032 -85.21512 -6.39048 -1.5967 -2.99706 90.46105 10.82619 -9.72976 -108.06689 -14.01689 1.58375 3.34788
0.31791 -0.10877 -0.14002 742.0696 0.72204 -4.74596 21.71763 0.953 2.54988 -22.18045 -0.8957 -2.11994 166.38689 -152.61365 -87.14684 119.63929 68.76365 -75.22911 -21.88466 166.38689 156.03495 87.14684 121.91134 -67.79165 -75.2291 21.88457 77.47862 -7.08642 -1.72645 -84.53561 -6.48381 -1.54179 -2.97285 90.72006 10.6534 -9.37148 -109.24751 -14.08089 1.53834 3.32776
0.31731 -0.10966 -0.13942 742.23443 1.29594 -4.76602 21.31918 0.89461 2.20633 -22.88086 -0.74794 -2.11994 166.38689 -152.94708 -87.14684 119.85741 68.73146 -75.2291 -21.88465 166.38689 156.01395 87.14684 122.07807 -67.74666 -75.22909 21.88456 77.27997 -7.33493 -1.96783 -83.85008 -6.59121 -1.45365 -2.93408 91.05748 10.76532 -8.68313 -110.68667 -13.98638 1.54313 3.3258
0.31678 -0.11047 -0.13888 742.40818 1.81603 -4.76172 20.95077 0.81666 1.91468 -23.65813 -0.5804 -2.11994 166.38689 -153.27999 -87.14684 120.14192 68.70306 -75.2291 -21.88465 166.38689 155.98376 87.14684 122.44238 -67.70577 -75.22909 21.88455 77.01336 -7.8075 -2.44625 -83.16165 -6.70303 -1.35343 -2.89008 91.42092 10.97634 -7.88075 -112.21134 -13.83641 1.56445 3.32968
0.31622 -0.1113 -0.1383 742.57632 2.35143 -4.76991 20.57278 0.74949 1.60139 -24.38882 -0.42104 -2.11994 166.38689 -153.62986 -87.14684 120.39725 68.67343 -75.2291 -21.88465 166.38689 155.97092 87.14684 122.73554 -67.66432 -75.22909 21.88455 76.77552 -8.17037 -2.81388 -82.47602 -6.81113 -1.25999 -2.84916 91.76888 11.13639 -7.13953 -113.67825 -13.71798 1.57685 3.33046
0.31566 -0.11218 -0.13775 742.75176 2.9272 -4.7733 20.17295 0.67377 1.27774 -25.17305 -0.26305 -2.11994 166.38689 -153.91273 -87.14684 120.65133 68.64224 -75.2291 -21.88462 166.38689 155.89804 87.14684 122.9521 -67.61762 -75.22909 21.88453 76.54447 -8.56331 -3.19305 -81.77958 -6.92707 -1.16018 -2.80485 92.13461 11.32084 -6.35907 -115.23148 -13.57404 1.59489 3.33304
0.31512 -0.11295 -0.13717 742.91378 3.40455 -4.78006 19.82781 0.61134 0.98944 -25.86151 -0.09881 -2.11994 166.38689 -154.33327 -87.14684 120.92384 68.61505 -75.22911 -21.88467 166.38689 155.95034 87.14684 123.37367 -67.58275 -75.22909 21.88453 76.28567 -8.94702 -3.60284 -81.10875 -7.02738 -1.07129 -2.76657 92.46739 11.47868 -5.63252 -116.62147 -13.46762 1.60513 3.33316
0.31456 -0.11343 -0.13646 743.03763 3.63376 -4.8072 19.62307 0.59154 0.77839 -26.27667 0.08412 -2.11994 166.3869 -155.13827 -87.14685 121.21635 68.59743 -75.22914 -21.88497 166.38689 156.34309 87.14684 124.32026 -67.57933 -75.22909 21.88455 75.94564 -9.2635 -4.06618 -80.48429 -7.0848 -1.0133 -2.74551 92.71788 11.533 -5.0909 -117.55547 -13.50262 1.59102 3.32675
0.31402 -0.1138 -0.13573 743.14757 3.76352 -4.83762 19.4737 0.58572 0.60267 -26.59026 0.27121 -2.11994 166.38691 -156.08015 -87.14685 121.52732 68.58368 -75.22918 -21.88535 166.38689 156.86391 87.14684 125.46414 -67.58769 -75.2291 21.88457 75.58406 -9.56128 -4.54775 -79.89068 -7.12603 -0.96721 -2.73089 92.93149 11.55784 -4.60584 -118.31901 -13.5728 1.56843 3.31744
0.31347 -0.11422 -0.13501 743.26289 3.9321 -4.86297 19.30158 0.57274 0.41617 -26.9436 0.45214 -2.11994 166.38691 -156.95678 -87.14686 121.83875 68.56854 -75.22922 -21.88568 166.38688 157.33168 87.14684 126.51358 -67.59071 -75.2291 21.8846 75.24625 -9.85947 -5.00373 -79.29973 -7.17373 -0.91722 -2.71384 93.15176 11.60046 -4.08989 -119.14901 -13.61128 1.54883 3.30833
0.3129 -0.11466 -0.13426 743.3818 4.12658 -4.90219 19.11969 0.56224 0.20961 -27.32757 0.65208 -2.11994 166.38692 -157.8482 -87.14686 122.11492 68.55225 -75.22926 -21.88609 166.38688 157.77787 87.14684 127.59284 -67.59372 -75.2291 21.88459 74.8469 -10.19894 -5.54064 -78.6383 -7.22533 -0.86045 -2.6945 93.41499 11.62955 -3.5927 -120.02676 -13.71466 1.53297 3.30392
0.3124 -0.11502 -0.13358 743.49067 4.24313 -4.91414 18.97161 0.55044 0.05203 -27.62159 0.81282 -2.11994 166.38693 -158.7389 -87.14687 122.4684 68.5389 -75.22929 -21.88634 166.38688 158.29888 87.14684 128.65082 -67.59962 -75.22911 21.88467 74.57167 -10.44589 -5.91063 -78.13092 -7.26491 -0.82077 -2.68153 93.58042 11.67661 -3.07029 -120.76566 -13.69132 1.50771 3.28924
